<svg aria-hidden="true" style="position: absolute; width: 0; height: 0; overflow: hidden;" version="1.1" xmlns="http://www.w3.org/2000/svg" xmlns:xlink="http://www.w3.org/1999/xlink">
<defs>
<symbol id="icon-logo" viewBox="0 0 57 32">
<path d="M30.089 9.302l-0.111 0.058v7.284l0.102 0.347c0.142 0.498 0.316 0.853 0.6 1.24 0.409 0.551 0.987 1.022 1.604 1.302 0.284 0.129 0.489 0.187 1.147 0.333 0.267 0.058 1.049 0.058 1.316 0 1.111-0.244 1.542-0.449 2.196-1.049 0.409-0.378 0.613-0.649 0.862-1.151 0.267-0.542 0.307-0.756 0.302-1.644 0-0.88-0.036-1.058-0.302-1.6-0.249-0.498-0.48-0.809-0.862-1.147-0.693-0.613-1.173-0.836-2.267-1.049-0.133-0.027-0.773-0.049-1.431-0.049-1.027 0-1.204-0.009-1.262-0.071-0.062-0.058-0.071-0.249-0.071-1.418 0-1.031-0.013-1.36-0.053-1.387-0.102-0.067-1.644-0.067-1.769 0zM34.813 14.129c0.653 0.258 1.036 0.613 1.271 1.182 0.249 0.6 0.236 0.964-0.062 1.609-0.271 0.591-0.849 1.004-1.587 1.142-0.302 0.058-0.391 0.058-0.676 0.004-0.929-0.178-1.476-0.618-1.742-1.4-0.102-0.307-0.107-0.369-0.107-1.422 0-0.609 0.013-1.138 0.027-1.178 0.027-0.067 0.147-0.071 1.324-0.058 1.218 0.018 1.307 0.022 1.551 0.12zM5.022 12.231l-0.444 0.089c-0.293 0.058-0.911 0.302-1.169 0.462-0.364 0.231-0.787 0.6-1.040 0.92-0.249 0.311-0.636 1-0.636 1.142 0 0.036-0.031 0.107-0.067 0.151-0.058 0.076-0.067 0.618-0.067 3.924v3.831l0.093 0.049c0.107 0.058 1.627 0.044 1.72-0.013 0.040-0.027 0.053-0.356 0.053-1.387 0-1.169 0.009-1.36 0.071-1.418 0.058-0.062 0.24-0.071 1.311-0.071 0.68 0 1.324-0.018 1.427-0.040 0.578-0.129 0.867-0.2 0.924-0.236 0.036-0.018 0.164-0.076 0.284-0.124 0.769-0.32 1.622-1.187 1.956-1.991 0.24-0.578 0.36-1.316 0.289-1.8-0.16-1.107-0.511-1.809-1.218-2.431-0.707-0.627-1.178-0.849-2.28-1.062-0.284-0.058-0.929-0.053-1.209 0.004zM6.431 14.151c0.951 0.347 1.516 1.267 1.351 2.2-0.16 0.902-0.827 1.533-1.818 1.72-0.516 0.093-2.391 0.076-2.453-0.027-0.027-0.036-0.044-0.547-0.044-1.147 0-1.347 0.044-1.547 0.453-2.084 0.289-0.378 0.867-0.707 1.391-0.787 0.276-0.040 0.827 0.022 1.12 0.124zM10.427 12.249c-0.013 0.040-0.027 1.756-0.027 3.813 0 2.853 0.013 3.756 0.053 3.796 0.067 0.067 1.644 0.076 1.773 0.009 0.084-0.044 0.084-0.133 0.084-3.8 0-2.062-0.013-3.778-0.027-3.818-0.022-0.062-0.147-0.071-0.929-0.071s-0.907 0.009-0.929 0.071zM13.209 12.231c-0.098 0.098-0.058 0.2 0.196 0.507 0.142 0.169 0.436 0.547 0.658 0.84s0.516 0.671 0.649 0.849c0.133 0.173 0.436 0.564 0.671 0.867 0.231 0.302 0.44 0.578 0.458 0.604 0.018 0.036-0.022 0.124-0.102 0.222-0.076 0.093-0.4 0.498-0.72 0.902-0.769 0.969-1.058 1.329-1.618 2.031-0.387 0.48-0.471 0.609-0.458 0.711l0.013 0.124h2.444l0.822-1.098c0.453-0.604 0.844-1.102 0.876-1.102 0.027 0 0.396 0.413 0.822 0.92 0.422 0.507 0.844 1.009 0.942 1.111l0.173 0.191h1.187c1.284 0 1.333-0.009 1.271-0.231-0.013-0.058-0.307-0.422-0.653-0.813-2.173-2.467-2.533-2.884-2.507-2.947 0.022-0.062 0.4-0.524 1.222-1.498 0.231-0.276 0.644-0.764 0.911-1.089 0.271-0.324 0.556-0.658 0.636-0.742 0.151-0.156 0.178-0.271 0.089-0.36-0.040-0.040-0.364-0.053-1.196-0.053h-1.138l-0.267 0.32c-0.151 0.178-0.484 0.582-0.742 0.902-0.662 0.804-0.689 0.831-0.733 0.813-0.044-0.013-1.396-1.809-1.476-1.96-0.040-0.067-0.147-0.076-1.209-0.076-0.849 0-1.182 0.013-1.222 0.053z"></path>
<path d="M24.467 12.231c-0.782 0.187-0.911 0.24-1.476 0.582-0.382 0.231-0.933 0.756-1.204 1.156-0.409 0.591-0.604 1.258-0.6 2.053 0 0.671 0.098 1.084 0.391 1.667 0.213 0.422 0.493 0.782 0.871 1.116 0.387 0.338 0.653 0.511 1.107 0.724 0.684 0.311 0.996 0.342 3.56 0.364 1.951 0.018 2.169 0.013 2.236-0.049 0.062-0.067 0.071-0.284 0.071-1.991 0-1.133-0.018-2.067-0.049-2.276-0.116-0.853-0.422-1.498-1.022-2.129-0.84-0.889-1.796-1.276-3.107-1.267-0.329 0.004-0.68 0.027-0.778 0.049zM25.751 14.022c0.622 0.147 1.213 0.578 1.453 1.053 0.213 0.422 0.24 0.622 0.24 1.836v1.111l-1.244 0.013c-1.044 0.009-1.289 0-1.511-0.062-0.644-0.173-1.107-0.564-1.391-1.164-0.151-0.324-0.16-0.364-0.16-0.809-0.004-0.449 0.004-0.48 0.164-0.809 0.436-0.902 1.484-1.4 2.449-1.169zM42.089 12.218c-0.062 0.022-0.258 0.071-0.44 0.116-0.636 0.156-1.2 0.489-1.76 1.031-0.547 0.529-0.92 1.204-1.058 1.902-0.058 0.298-0.058 1.187 0 1.489 0.133 0.698 0.467 1.307 1.031 1.867 0.484 0.48 0.8 0.707 1.289 0.911 0.733 0.311 1.022 0.338 3.564 0.36 1.827 0.018 2.169 0.013 2.213-0.040 0.067-0.080 0.040-4.182-0.027-4.6-0.049-0.293-0.204-0.751-0.32-0.942-0.249-0.418-0.418-0.64-0.711-0.938-0.52-0.524-1.129-0.88-1.782-1.040-0.16-0.040-0.36-0.089-0.449-0.116-0.191-0.049-1.391-0.049-1.551 0zM43.342 14.022c0.782 0.204 1.364 0.693 1.56 1.311 0.151 0.467 0.169 0.693 0.156 1.689l-0.013 1-1.284 0.013c-1.209 0.009-1.307 0.004-1.569-0.084-0.787-0.262-1.244-0.756-1.458-1.569-0.084-0.32-0.084-0.4 0.004-0.747 0.209-0.827 0.738-1.356 1.587-1.596 0.351-0.098 0.684-0.102 1.018-0.018zM47.573 12.244c-0.013 0.036-0.018 1.071-0.009 2.298 0.018 1.698 0.036 2.271 0.080 2.391 0.369 0.987 0.507 1.222 1.022 1.733 0.182 0.187 0.476 0.427 0.644 0.542 0.351 0.231 0.951 0.489 1.311 0.56 0.133 0.027 0.351 0.067 0.48 0.093 0.618 0.124 1.471 0.013 2.227-0.289 0.209-0.084 0.382-0.151 0.391-0.151 0.058 0-0.013 0.258-0.129 0.489-0.258 0.498-0.747 0.88-1.351 1.049-0.156 0.044-0.52 0.084-0.884 0.102l-0.622 0.027v1.684l0.133 0.036c0.204 0.062 1.791 0 1.907-0.076 0.049-0.031 0.164-0.071 0.249-0.089 0.222-0.044 0.662-0.253 0.956-0.444 0.347-0.231 0.884-0.742 1.107-1.062 0.204-0.289 0.471-0.787 0.471-0.88 0-0.031 0.036-0.12 0.076-0.191 0.071-0.124 0.080-0.436 0.093-3.889 0.009-2.538 0-3.796-0.031-3.88l-0.049-0.12h-0.889c-0.884 0-0.889 0-0.911 0.098-0.013 0.058-0.027 1.036-0.036 2.173l-0.009 2.071-0.191 0.378c-0.369 0.751-1.062 1.164-1.942 1.164-0.764-0.004-1.476-0.369-1.858-0.956-0.040-0.062-0.124-0.249-0.187-0.418l-0.111-0.311v-2.044c0-1.533-0.013-2.062-0.053-2.102s-0.316-0.053-0.956-0.053c-0.756 0-0.911 0.009-0.929 0.067z"></path>
</symbol>
</defs>
</svg>